<?xml version="1.0" encoding="UTF-8"?>
<svg xmlns="http://www.w3.org/2000/svg" xmlns:xlink="http://www.w3.org/1999/xlink" viewBox="0 0 1560 152.69">
  <defs>
    <style>
      .cls-1 {
        letter-spacing: 0em;
      }

      .cls-2, .cls-3, .cls-4, .cls-5, .cls-6 {
        fill: #fff;
      }

      .cls-7 {
        letter-spacing: -.03em;
      }

      .cls-8 {
        letter-spacing: -.14em;
      }

      .cls-9 {
        fill: #0090d6;
      }

      .cls-9, .cls-10, .cls-11, .cls-12, .cls-13 {
        fill-rule: evenodd;
      }

      .cls-14 {
        letter-spacing: -.02em;
      }

      .cls-15 {
        letter-spacing: 0em;
      }

      .cls-16 {
        isolation: isolate;
      }

      .cls-17 {
        letter-spacing: -.01em;
      }

      .cls-18 {
        letter-spacing: 0em;
      }

      .cls-3 {
        font-family: Montserrat-Medium, Montserrat;
        font-size: 28.95px;
        font-weight: 500;
      }

      .cls-4 {
        font-size: 18px;
      }

      .cls-4, .cls-5 {
        font-family: Montserrat-Light, Montserrat;
        font-weight: 300;
      }

      .cls-19 {
        letter-spacing: 0em;
      }

      .cls-10 {
        fill: #2163a9;
      }

      .cls-20 {
        letter-spacing: -.06em;
      }

      .cls-21 {
        letter-spacing: .25em;
      }

      .cls-22 {
        letter-spacing: 0em;
      }

      .cls-11 {
        fill: #2a82c4;
      }

      .cls-23 {
        letter-spacing: .24em;
      }

      .cls-12 {
        fill: #194c8c;
      }

      .cls-24 {
        letter-spacing: 0em;
      }

      .cls-25 {
        letter-spacing: -.02em;
      }

      .cls-5 {
        font-size: 17.68px;
      }

      .cls-26 {
        letter-spacing: 0em;
      }

      .cls-27 {
        letter-spacing: 0em;
      }

      .cls-28 {
        letter-spacing: 0em;
      }

      .cls-29 {
        letter-spacing: -.02em;
      }

      .cls-30 {
        letter-spacing: 0em;
      }

      .cls-31 {
        fill: url(#_Безымянный_градиент_6);
        mix-blend-mode: multiply;
      }

      .cls-32, .cls-33 {
        fill: #f6c80d;
      }

      .cls-13 {
        fill: #2d518b;
      }

      .cls-34 {
        letter-spacing: 0em;
      }

      .cls-35 {
        letter-spacing: -.02em;
      }

      .cls-6 {
        font-size: 20.7px;
      }

      .cls-6, .cls-33 {
        font-family: Montserrat-Bold, Montserrat;
        font-weight: 700;
      }

      .cls-36 {
        letter-spacing: .25em;
      }

      .cls-37 {
        letter-spacing: 0em;
      }

      .cls-38 {
        letter-spacing: -.03em;
      }

      .cls-33 {
        font-size: 19.44px;
      }
    </style>
    <linearGradient id="_Безымянный_градиент_6" data-name="Безымянный градиент 6" x1="780" y1="186.32" x2="780" y2="-118.33" gradientUnits="userSpaceOnUse">
      <stop offset="0" stop-color="#fff"/>
      <stop offset="1" stop-color="#262626"/>
    </linearGradient>
  </defs>
  <g class="cls-16">
    <g id="_Слой_2" data-name="Слой 2">
      <g id="_Слой_1-2" data-name="Слой 1">
        <g>
          <rect class="cls-31" width="1560" height="152.69"/>
          <g>
            <text class="cls-6" transform="translate(434.08 82.69)"><tspan class="cls-8" x="0" y="0">Г</tspan><tspan class="cls-22" x="9.36" y="0">лавная</tspan></text>
            <text class="cls-6" transform="translate(552.65 82.69)"><tspan x="0" y="0">Пр</tspan><tspan class="cls-18" x="31.17" y="0">о</tspan><tspan x="44.55" y="0">дукция</tspan></text>
            <text class="cls-6" transform="translate(710.26 82.69)"><tspan x="0" y="0">Па</tspan><tspan class="cls-29" x="29.31" y="0">р</tspan><tspan x="43.26" y="0">тнеры</tspan></text>
            <text class="cls-6" transform="translate(854.93 82.69)"><tspan class="cls-7" x="0" y="0">К</tspan><tspan x="14.59" y="0">оманда</tspan></text>
            <text class="cls-6" transform="translate(978.35 82.69)"><tspan class="cls-7" x="0" y="0">К</tspan><tspan x="14.59" y="0">онта</tspan><tspan class="cls-34" x="66.07" y="0">к</tspan><tspan x="79.26" y="0">ты</tspan></text>
          </g>
          <g>
            <text class="cls-33" transform="translate(1174.05 79.98)"><tspan class="cls-30" x="0" y="0">+</tspan><tspan class="cls-1" x="11.45" y="0">7 (</tspan><tspan class="cls-27" x="35.94" y="0">9</tspan><tspan x="48.21" y="0">13) </tspan><tspan class="cls-20" x="79.8" y="0">7</tspan><tspan x="90.58" y="0">4</tspan><tspan class="cls-24" x="103.98" y="0">0-</tspan><tspan class="cls-30" x="124.84" y="0">0</tspan><tspan class="cls-15" x="137.84" y="0">3</tspan><tspan class="cls-26" x="149.35" y="0">-</tspan><tspan x="156.93" y="0">63</tspan></text>
            <text class="cls-4" transform="translate(1144.87 106.14)"><tspan x="0" y="0">пн-пт 09:0</tspan><tspan class="cls-37" x="94.07" y="0">0</tspan><tspan class="cls-14" x="106.07" y="0">-</tspan><tspan x="112.64" y="0">1</tspan><tspan class="cls-35" x="119" y="0">7</tspan><tspan x="129.09" y="0">:00 (НСК)</tspan></text>
            <text class="cls-5" transform="translate(1223.02 52.07)"><tspan class="cls-25" x="0" y="0">О</tspan><tspan class="cls-38" x="14.78" y="0">т</tspan><tspan x="22.31" y="0">д</tspan><tspan class="cls-17" x="33.61" y="0">е</tspan><tspan x="44.14" y="0">л пр</tspan><tspan class="cls-19" x="83.69" y="0">о</tspan><tspan class="cls-28" x="94.83" y="0">даж</tspan></text>
            <g id="xubXsR.tif">
              <path class="cls-32" d="m1163.06,62.68c.49.1.92.32,1.28.67.56.54,1.11,1.1,1.65,1.65.62.64.91,1.42.94,2.31.02.94-.16,1.85-.47,2.74-1.09,3.17-3,5.81-5.38,8.13-1.58,1.54-3.38,2.79-5.35,3.78-1.33.66-2.71,1.2-4.21,1.32-.96.08-1.87-.09-2.59-.74-.68-.62-1.32-1.28-1.94-1.96-.85-.91-.77-2.1.14-3,.88-.87,1.74-1.75,2.63-2.61.61-.59,1.34-.79,2.14-.44.31.14.59.37.85.6.47.43.91.89,1.36,1.35.08.08.14.1.24.04.29-.17.6-.32.89-.5,1.05-.67,1.99-1.49,2.83-2.4.83-.89,1.6-1.83,2.13-2.94.07-.14.04-.22-.06-.32-.53-.52-1.07-1.04-1.57-1.59-.72-.8-.72-1.86,0-2.64.78-.84,1.6-1.63,2.4-2.44.45-.46.92-.88,1.58-1h.52Zm2.02,2.89c-.47-.46-.93-.93-1.4-1.39-.1-.1-.22-.2-.34-.28-.4-.25-.81-.23-1.17.09-.33.3-.65.62-.97.94-.55.55-1.1,1.1-1.65,1.65-.64.64-.64,1.11,0,1.75.47.47.95.94,1.44,1.41.39.38.45.69.23,1.19-.56,1.26-1.4,2.33-2.33,3.33-1.01,1.09-2.13,2.06-3.41,2.83-.28.17-.57.32-.87.47-.41.21-.76.15-1.1-.18-.5-.5-1-1-1.5-1.49-.09-.09-.17-.17-.27-.24-.41-.31-.88-.3-1.24.05-.92.9-1.83,1.81-2.73,2.73-.45.47-.46.97-.02,1.45.56.61,1.14,1.21,1.74,1.79.58.55,1.3.64,2.07.56,1.27-.13,2.43-.58,3.56-1.13,2.27-1.11,4.27-2.59,6-4.44,1.77-1.91,3.24-4.01,4.17-6.46.36-.95.58-1.91.58-2.77.02-.68-.25-1.32-.8-1.86Z"/>
            </g>
          </g>
          <g>
            <polygon class="cls-2" points="366.22 94.31 334.52 64.47 365.06 35.94 330.49 35.94 314.87 49.98 314.74 36 286.53 35.95 246.86 69.69 207.24 35.94 201.13 35.94 201.13 94.31 226.58 94.31 226.55 84.69 237.12 94.36 256.56 94.4 267.15 84.7 267.15 94.33 289.45 94.33 292.59 94.33 314.83 94.33 314.81 85.11 324.85 94.31 366.22 94.31"/>
            <g>
              <polygon class="cls-10" points="205.56 89.88 205.56 40.34 246.86 75.51 288.12 40.42 288.15 89.9 271.58 89.9 271.58 74.62 254.84 89.97 246.73 89.97 246.73 89.93 238.84 89.93 222.09 74.59 222.13 89.88 205.56 89.88"/>
              <polygon class="cls-9" points="262.2 62.46 282.69 45.04 282.72 45.03 288.13 52.15 288.13 60.66 262.2 62.46"/>
              <polygon class="cls-10" points="275.62 51.05 288.12 40.42 288.13 60.46 275.62 51.05"/>
              <path class="cls-9" d="m245.53,74.37l.23.19-.71-.02s.17-.06.48-.17h0Zm2.37.26l2.2-1.87c9.14-3.22,28.37-9.89,38.03-12.53v15.56s-16.55-.48-16.55-.48v-.69l-.73.67-22.96-.66Z"/>
              <path class="cls-11" d="m245.71,74.53l.48.4-1.14-.36s.24-.02.67-.05h0Zm1.46.71l1.03-.88c7.84-.51,28.4-1.78,39.94-1.88v15.59s-16.56-5.19-16.56-5.19v-8.27l-6.73,6.16-17.69-5.54Z"/>
              <path class="cls-10" d="m246.18,74.93l.68.58.34-.29c3.42.96,10.45,2.96,18.05,5.21l-5.63,5.16-14.58-10.98s.41.11,1.15.32h0Zm41.97,12.73v2.23s-16.57,0-16.57,0v-7.57c6.28,1.9,12.36,3.83,16.57,5.34Z"/>
              <path class="cls-13" d="m246.51,75.21l.35.29.28-.24c2.01,1.6,6.94,5.55,12.57,10.23l-4.88,4.47h-1.47l-6.85-14.75Z"/>
              <path class="cls-9" d="m205.56,89.88v-14.88l16.53.23.03,14.64h-16.57Zm48.27.09h-7.1v-.04h-7.89l-16.03-14.69,24.04.34s3.69,6.67,6.98,14.39Z"/>
              <path class="cls-11" d="m205.56,76.04v-11.59l41.28,11.1c.13.06-11.86.17-15.85.24-1.03-.02-2.06.08-3.08.06l-4.38.04-1.43-1.31v1.33s-12.4.12-12.4.12c-1.04.06-1.92-.01-3.05-.01l-1.08.02Z"/>
              <path class="cls-10" d="m205.56,64.85v-13.43l41.29,24.1c.11.09-11.48-2.94-15.35-3.92-.99-.29-2.01-.47-2.99-.75l-17.62-4.59c-1.02-.21-1.85-.51-2.94-.81l-2.39-.61Z"/>
              <path class="cls-12" d="m246.85,75.53l.1.04-.1-.04Z"/>
              <path class="cls-12" d="m205.56,56.63v-16.29l41.3,35.17c.09.11-10.78-4.9-14.41-6.54-.92-.46-1.89-.81-2.81-1.26l-16.52-7.6c-.97-.39-1.73-.83-2.75-1.31l-4.81-2.17Z"/>
              <path class="cls-12" d="m246.86,75.51l.09.05-.09-.05Z"/>
              <polygon class="cls-10" points="293.81 89.9 293.81 40.38 310.35 40.43 310.52 59.85 332.19 40.37 353.81 40.37 328.04 64.46 355.04 89.88 326.57 89.88 310.35 75.01 310.38 89.9 293.81 89.9"/>
              <path class="cls-11" d="m352.58,40.37h1.23l-24.21,22.62-18.92-3.29s-.03.05,41.9-19.33Z"/>
              <path class="cls-11" d="m310.52,59.82h0s0,0,0,0c0,0,0,0,0,0h0Zm.01.02h.01c.23.11,2.74,1.46,29.24,15.68l10.22,9.62-4.09,4.74h-19.34s-1.47-1.34-1.47-1.34l-14.58-28.7Z"/>
              <path class="cls-13" d="m326.12,89.46l-15.77-14.45.04,14.88h-3.73l3.95-30s0,0,15.52,29.57Z"/>
              <polygon class="cls-9" points="317.2 81.3 310.78 75.41 310.53 59.96 317.2 81.3"/>
              <path class="cls-12" d="m293.81,89.9v-.59l16.71-29.45s.06.03,1.67,16.86l-1.85-1.7.04,14.88h-16.57Z"/>
              <path class="cls-9" d="m293.81,89.9v-21.83l16.71-8.21s0,0-16.64,30.04h-.07Z"/>
              <polygon class="cls-11" points="293.81 67.01 293.81 40.38 310.35 40.43 310.35 40.75 293.81 67.01"/>
            </g>
            <text class="cls-3" transform="translate(198.96 122.95)"><tspan class="cls-21" x="0" y="0">СЕ</tspan><tspan class="cls-23" x="54.51" y="0">Р</tspan><tspan class="cls-36" x="82.13" y="0">ВИС</tspan></text>
          </g>
        </g>
      </g>
    </g>
  </g>
</svg>