<?xml version="1.0" encoding="UTF-8"?>
<svg id="_Слой_2" data-name="Слой 2" xmlns="http://www.w3.org/2000/svg" viewBox="0 0 170.08 94.63">
  <defs>
    <style>
      .cls-1, .cls-2 {
        fill: #fff;
      }

      .cls-3 {
        fill: #0090d6;
      }

      .cls-3, .cls-4, .cls-5, .cls-6, .cls-7 {
        fill-rule: evenodd;
      }

      .cls-2 {
        font-family: Montserrat-Medium, Montserrat;
        font-size: 28.95px;
        font-weight: 500;
      }

      .cls-4 {
        fill: #2163a9;
      }

      .cls-8 {
        letter-spacing: .25em;
      }

      .cls-5 {
        fill: #2a82c4;
      }

      .cls-9 {
        letter-spacing: .24em;
      }

      .cls-6 {
        fill: #194c8c;
      }

      .cls-7 {
        fill: #2d518b;
      }

      .cls-10 {
        letter-spacing: .25em;
      }
    </style>
  </defs>
  <g id="_Слой_1-2" data-name="Слой 1">
    <g>
      <polygon class="cls-1" points="167.26 58.37 135.56 28.53 166.1 0 131.53 0 115.91 14.04 115.78 .07 87.58 0 47.9 33.75 8.28 0 2.17 0 2.17 58.37 27.62 58.37 27.6 48.75 38.16 58.43 57.6 58.46 68.19 48.76 68.19 58.39 90.49 58.39 93.63 58.39 115.87 58.39 115.85 49.18 125.89 58.38 167.26 58.37"/>
      <g>
        <polygon class="cls-4" points="6.6 53.94 6.6 4.4 47.9 39.57 89.16 4.48 89.2 53.96 72.63 53.96 72.63 38.68 55.88 54.03 47.77 54.03 47.77 53.99 39.89 53.99 23.14 38.65 23.17 53.94 6.6 53.94"/>
        <polygon class="cls-3" points="63.24 26.52 83.73 9.1 83.76 9.09 89.17 16.22 89.17 24.72 63.24 26.52"/>
        <polygon class="cls-4" points="76.67 15.11 89.16 4.48 89.17 24.52 76.67 15.11"/>
        <path class="cls-3" d="m46.57,38.44l.23.19-.71-.02s.17-.06.48-.17h0Zm2.37.26l2.2-1.87c9.14-3.22,28.37-9.89,38.03-12.53v15.56s-16.55-.48-16.55-.48v-.69l-.73.67-22.96-.66Z"/>
        <path class="cls-5" d="m46.75,38.59l.48.4-1.14-.36s.24-.02.67-.05h0Zm1.46.71l1.03-.88c7.84-.51,28.4-1.78,39.94-1.88v15.59s-16.56-5.19-16.56-5.19v-8.27l-6.73,6.16-17.69-5.54Z"/>
        <path class="cls-4" d="m47.23,39l.68.58.34-.29c3.42.96,10.45,2.96,18.05,5.21l-5.63,5.16-14.58-10.98s.41.11,1.15.32h0Zm41.97,12.73v2.23s-16.57,0-16.57,0v-7.57c6.28,1.9,12.36,3.83,16.57,5.34Z"/>
        <path class="cls-7" d="m47.56,39.28l.35.29.28-.24c2.01,1.6,6.94,5.55,12.57,10.23l-4.88,4.47h-1.47l-6.85-14.75Z"/>
        <path class="cls-3" d="m6.6,53.94v-14.88l16.53.23.03,14.64H6.6Zm48.27.09h-7.1v-.04h-7.89l-16.03-14.69,24.04.34s3.69,6.67,6.98,14.39Z"/>
        <path class="cls-5" d="m6.6,40.1v-11.59l41.28,11.1c.13.06-11.86.17-15.85.24-1.03-.02-2.06.08-3.08.06l-4.38.04-1.43-1.31v1.33s-12.4.12-12.4.12c-1.04.06-1.92-.01-3.05-.01l-1.08.02Z"/>
        <path class="cls-4" d="m6.6,28.92v-13.43l41.29,24.1c.11.09-11.48-2.94-15.35-3.92-.99-.29-2.01-.47-2.99-.75l-17.62-4.59c-1.02-.21-1.85-.51-2.94-.81l-2.39-.61Z"/>
        <path class="cls-6" d="m47.89,39.59l.1.04-.1-.04Z"/>
        <path class="cls-6" d="m6.6,20.69V4.4l41.3,35.17c.09.11-10.78-4.9-14.41-6.54-.92-.46-1.89-.81-2.81-1.26l-16.52-7.6c-.97-.39-1.73-.83-2.75-1.31l-4.81-2.17Z"/>
        <path class="cls-6" d="m47.9,39.57l.09.05-.09-.05Z"/>
        <polygon class="cls-4" points="94.86 53.96 94.86 4.44 111.39 4.49 111.56 23.91 133.23 4.43 154.86 4.43 129.08 28.52 156.08 53.94 127.62 53.94 111.39 39.07 111.42 53.96 94.86 53.96"/>
        <path class="cls-5" d="m153.62,4.43h1.23l-24.21,22.62-18.92-3.29s-.03.05,41.9-19.33Z"/>
        <path class="cls-5" d="m111.56,23.88h0s0,0,0,0c0,0,0,0,0,0h0Zm.01.02h.01c.23.11,2.74,1.46,29.24,15.68l10.22,9.62-4.09,4.74h-19.34s-1.47-1.34-1.47-1.34l-14.58-28.7Z"/>
        <path class="cls-7" d="m127.16,53.52l-15.77-14.45.04,14.88h-3.73l3.95-30s0,0,15.52,29.57Z"/>
        <polygon class="cls-3" points="118.25 45.36 111.82 39.47 111.57 24.02 118.25 45.36"/>
        <path class="cls-6" d="m94.86,53.96v-.59l16.71-29.45s.06.03,1.67,16.86l-1.85-1.7.04,14.88h-16.57Z"/>
        <path class="cls-3" d="m94.86,53.96v-21.83l16.71-8.21s0,0-16.64,30.04h-.07Z"/>
        <polygon class="cls-5" points="94.86 31.07 94.86 4.44 111.39 4.49 111.39 4.82 94.86 31.07"/>
      </g>
      <text class="cls-2" transform="translate(0 87.01)"><tspan class="cls-8" x="0" y="0">СЕ</tspan><tspan class="cls-9" x="54.51" y="0">Р</tspan><tspan class="cls-10" x="82.13" y="0">ВИС</tspan></text>
    </g>
  </g>
</svg>