<?xml version="1.0" encoding="UTF-8"?>
<svg id="uuid-7193ee4f-7bd7-46a9-853e-90a32670100e" data-name="Слой 2" xmlns="http://www.w3.org/2000/svg" viewBox="0 0 26.7 16.71">
  <g id="uuid-a2b4184b-59ad-4381-907e-e1505853ba45" data-name="Слой 1">
    <path d="m10.62,10.62l.82.67c.55.45,1.23.67,1.9.67s1.35-.22,1.9-.67l.82-.67,6.05,4.16H4.57l6.05-4.16ZM23.86,0H2.84C1.27,0,0,1.27,0,2.84v11.03c0,1.57,1.27,2.84,2.84,2.84h21.02c1.57,0,2.84-1.27,2.84-2.84V2.84c0-1.57-1.27-2.84-2.84-2.84Zm.84,14.22l-7.06-4.86,7.13-5.77v10.28c0,.12-.03.24-.07.34Zm-22.77-.34V3.59l7.13,5.77L1.99,14.22c-.04-.11-.07-.22-.07-.34Zm12.11-4.08c-.4.32-.98.32-1.38,0L2.93,1.93h20.83l-9.72,7.87Z" style="fill: #0b161e;"/>
  </g>
</svg>